<mxfile host="app.diagrams.net" agent="Mozilla/5.0 (Macintosh; Intel Mac OS X 10_15_7) AppleWebKit/537.36 (KHTML, like Gecko) Chrome/135.0.0.0 Safari/537.36" version="26.0.6">
  <diagram name="Page-1" id="tpSyJLsgmVsc1jbeHW1L">
    <mxGraphModel dx="1781" dy="648" grid="1" gridSize="10" guides="1" tooltips="1" connect="1" arrows="1" fold="1" page="1" pageScale="1" pageWidth="827" pageHeight="1169" math="0" shadow="0">
      <root>
        <mxCell id="0" />
        <mxCell id="1" parent="0" />
        <mxCell id="zJ9ajo2LfoPMXh8KIk3o-1" value="GameManager" style="swimlane;fontStyle=1;align=center;verticalAlign=top;childLayout=stackLayout;horizontal=1;startSize=26;horizontalStack=0;resizeParent=1;resizeParentMax=0;resizeLast=0;collapsible=1;marginBottom=0;whiteSpace=wrap;html=1;" vertex="1" parent="1">
          <mxGeometry x="420" y="190" width="360" height="160" as="geometry" />
        </mxCell>
        <mxCell id="zJ9ajo2LfoPMXh8KIk3o-3" value="" style="line;strokeWidth=1;fillColor=default;align=left;verticalAlign=middle;spacingTop=-1;spacingLeft=3;spacingRight=3;rotatable=0;labelPosition=right;points=[];portConstraint=eastwest;strokeColor=inherit;" vertex="1" parent="zJ9ajo2LfoPMXh8KIk3o-1">
          <mxGeometry y="26" width="360" height="8" as="geometry" />
        </mxCell>
        <mxCell id="zJ9ajo2LfoPMXh8KIk3o-4" value="+ TogglePause(): void&lt;div&gt;+ ToggleMap(): void&lt;/div&gt;&lt;div&gt;&lt;span style=&quot;white-space: pre;&quot;&gt;&#x9;&lt;/span&gt;&amp;nbsp; &amp;nbsp; &amp;nbsp; &amp;nbsp; &amp;nbsp; &amp;nbsp; &amp;nbsp; &amp;nbsp; &amp;nbsp; &amp;nbsp; &amp;nbsp; &amp;nbsp; &amp;nbsp; &amp;nbsp; &amp;nbsp; &amp;nbsp; &amp;nbsp; &amp;nbsp; &amp;nbsp; ...&lt;br&gt;&lt;/div&gt;&lt;div&gt;+ ShootTrail(Vector3 position, Quaternion rotation): void&lt;/div&gt;&lt;div&gt;+ SubToObservers(INotify observer): void&lt;/div&gt;&lt;div&gt;+ UnSubFromObservers(INotify observer): void&lt;/div&gt;&lt;div&gt;+ NotifyObservers(INotify.NotificationType notification): void&lt;/div&gt;" style="text;align=left;verticalAlign=top;spacingLeft=4;spacingRight=4;overflow=hidden;rotatable=0;points=[[0,0.5],[1,0.5]];portConstraint=eastwest;whiteSpace=wrap;html=1;fillColor=default;strokeColor=default;" vertex="1" parent="zJ9ajo2LfoPMXh8KIk3o-1">
          <mxGeometry y="34" width="360" height="126" as="geometry" />
        </mxCell>
        <mxCell id="zJ9ajo2LfoPMXh8KIk3o-5" value="&lt;p style=&quot;margin:0px;margin-top:4px;text-align:center;&quot;&gt;&lt;i&gt;&amp;lt;&amp;lt;Interface&amp;gt;&amp;gt;&lt;/i&gt;&lt;br&gt;&lt;b&gt;INotify&lt;/b&gt;&lt;/p&gt;&lt;hr size=&quot;1&quot; style=&quot;border-style:solid;&quot;&gt;&lt;p style=&quot;margin:0px;margin-left:4px;&quot;&gt;+ NotificationType: enum&lt;br&gt;&lt;/p&gt;&lt;hr size=&quot;1&quot; style=&quot;border-style:solid;&quot;&gt;&lt;p style=&quot;margin:0px;margin-left:4px;&quot;&gt;+ Notify(NotificationType state): void&lt;/p&gt;" style="verticalAlign=top;align=left;overflow=fill;html=1;whiteSpace=wrap;" vertex="1" parent="1">
          <mxGeometry x="60" y="232" width="220" height="110" as="geometry" />
        </mxCell>
        <mxCell id="zJ9ajo2LfoPMXh8KIk3o-6" value="&lt;div&gt;&amp;nbsp; &amp;nbsp;&amp;nbsp;&lt;/div&gt;&lt;div&gt;&amp;nbsp; &amp;nbsp; private void NotifyObservers(INotify.NotificationType notification)&lt;/div&gt;&lt;div&gt;&amp;nbsp; &amp;nbsp; {&lt;/div&gt;&lt;div&gt;&amp;nbsp; &amp;nbsp; &amp;nbsp; &amp;nbsp; &amp;nbsp; foreach (var observer in observers)&lt;/div&gt;&lt;div&gt;&amp;nbsp; &amp;nbsp; &amp;nbsp; &amp;nbsp; &amp;nbsp;{&lt;/div&gt;&lt;div&gt;&amp;nbsp; &amp;nbsp; &amp;nbsp; &amp;nbsp; &amp;nbsp; &amp;nbsp; &amp;nbsp; observer.Notify(notification);&lt;/div&gt;&lt;div&gt;&amp;nbsp; &amp;nbsp; &amp;nbsp; &amp;nbsp; &amp;nbsp;}&lt;/div&gt;&lt;div&gt;&amp;nbsp; &amp;nbsp; }&lt;/div&gt;&lt;div&gt;&lt;br&gt;&lt;/div&gt;" style="shape=note;size=20;whiteSpace=wrap;html=1;align=left;" vertex="1" parent="1">
          <mxGeometry x="405" y="410" width="390" height="130" as="geometry" />
        </mxCell>
        <mxCell id="zJ9ajo2LfoPMXh8KIk3o-7" value="" style="endArrow=none;dashed=1;html=1;rounded=0;exitX=0.5;exitY=1;exitDx=0;exitDy=0;exitPerimeter=0;entryX=0.5;entryY=0;entryDx=0;entryDy=0;entryPerimeter=0;" edge="1" parent="1" source="zJ9ajo2LfoPMXh8KIk3o-4" target="zJ9ajo2LfoPMXh8KIk3o-6">
          <mxGeometry width="50" height="50" relative="1" as="geometry">
            <mxPoint x="500" y="360" as="sourcePoint" />
            <mxPoint x="550" y="310" as="targetPoint" />
          </mxGeometry>
        </mxCell>
        <mxCell id="zJ9ajo2LfoPMXh8KIk3o-12" value="Cluck" style="html=1;whiteSpace=wrap;" vertex="1" parent="1">
          <mxGeometry x="-180" y="170" width="120" height="50" as="geometry" />
        </mxCell>
        <mxCell id="zJ9ajo2LfoPMXh8KIk3o-14" value="" style="endArrow=diamondThin;endFill=0;endSize=24;html=1;rounded=0;exitX=1;exitY=0.5;exitDx=0;exitDy=0;entryX=0;entryY=0.5;entryDx=0;entryDy=0;" edge="1" parent="1" source="zJ9ajo2LfoPMXh8KIk3o-5" target="zJ9ajo2LfoPMXh8KIk3o-4">
          <mxGeometry width="160" relative="1" as="geometry">
            <mxPoint x="90" y="360" as="sourcePoint" />
            <mxPoint x="250" y="360" as="targetPoint" />
          </mxGeometry>
        </mxCell>
        <mxCell id="zJ9ajo2LfoPMXh8KIk3o-15" value="" style="endArrow=block;dashed=1;endFill=0;endSize=12;html=1;rounded=0;exitX=1;exitY=0.5;exitDx=0;exitDy=0;entryX=-0.014;entryY=0.355;entryDx=0;entryDy=0;entryPerimeter=0;" edge="1" parent="1" source="zJ9ajo2LfoPMXh8KIk3o-12" target="zJ9ajo2LfoPMXh8KIk3o-5">
          <mxGeometry width="160" relative="1" as="geometry">
            <mxPoint x="-30" y="260" as="sourcePoint" />
            <mxPoint x="250" y="360" as="targetPoint" />
          </mxGeometry>
        </mxCell>
        <mxCell id="zJ9ajo2LfoPMXh8KIk3o-16" value="PlayerMovement" style="html=1;whiteSpace=wrap;" vertex="1" parent="1">
          <mxGeometry x="-180" y="80" width="120" height="50" as="geometry" />
        </mxCell>
        <mxCell id="zJ9ajo2LfoPMXh8KIk3o-17" value="DeviceOperator" style="html=1;whiteSpace=wrap;" vertex="1" parent="1">
          <mxGeometry x="-180" y="292" width="120" height="50" as="geometry" />
        </mxCell>
        <mxCell id="zJ9ajo2LfoPMXh8KIk3o-18" value="TriggerGateController" style="html=1;whiteSpace=wrap;" vertex="1" parent="1">
          <mxGeometry x="-180" y="390" width="120" height="50" as="geometry" />
        </mxCell>
        <mxCell id="zJ9ajo2LfoPMXh8KIk3o-19" value="" style="endArrow=block;dashed=1;endFill=0;endSize=12;html=1;rounded=0;exitX=1;exitY=0.5;exitDx=0;exitDy=0;entryX=-0.014;entryY=0.173;entryDx=0;entryDy=0;entryPerimeter=0;" edge="1" parent="1" source="zJ9ajo2LfoPMXh8KIk3o-16" target="zJ9ajo2LfoPMXh8KIk3o-5">
          <mxGeometry width="160" relative="1" as="geometry">
            <mxPoint x="-50" y="125" as="sourcePoint" />
            <mxPoint x="50" y="220" as="targetPoint" />
          </mxGeometry>
        </mxCell>
        <mxCell id="zJ9ajo2LfoPMXh8KIk3o-20" value="" style="endArrow=block;dashed=1;endFill=0;endSize=12;html=1;rounded=0;exitX=1;exitY=0.5;exitDx=0;exitDy=0;entryX=0.009;entryY=0.582;entryDx=0;entryDy=0;entryPerimeter=0;" edge="1" parent="1" source="zJ9ajo2LfoPMXh8KIk3o-17" target="zJ9ajo2LfoPMXh8KIk3o-5">
          <mxGeometry width="160" relative="1" as="geometry">
            <mxPoint x="-50" y="225" as="sourcePoint" />
            <mxPoint x="68" y="282" as="targetPoint" />
          </mxGeometry>
        </mxCell>
        <mxCell id="zJ9ajo2LfoPMXh8KIk3o-21" value="" style="endArrow=block;dashed=1;endFill=0;endSize=12;html=1;rounded=0;exitX=1;exitY=0.5;exitDx=0;exitDy=0;entryX=0;entryY=0.75;entryDx=0;entryDy=0;" edge="1" parent="1" source="zJ9ajo2LfoPMXh8KIk3o-18" target="zJ9ajo2LfoPMXh8KIk3o-5">
          <mxGeometry width="160" relative="1" as="geometry">
            <mxPoint x="-50" y="327" as="sourcePoint" />
            <mxPoint x="72" y="306" as="targetPoint" />
          </mxGeometry>
        </mxCell>
        <mxCell id="zJ9ajo2LfoPMXh8KIk3o-23" value="..." style="text;strokeColor=none;fillColor=none;spacingLeft=4;spacingRight=4;overflow=hidden;rotatable=0;points=[[0,0.5],[1,0.5]];portConstraint=eastwest;fontSize=30;whiteSpace=wrap;html=1;" vertex="1" parent="1">
          <mxGeometry x="-140" y="232" width="60" height="70" as="geometry" />
        </mxCell>
        <mxCell id="zJ9ajo2LfoPMXh8KIk3o-24" value="" style="endArrow=block;endSize=16;endFill=0;html=1;rounded=0;exitX=1;exitY=0.5;exitDx=0;exitDy=0;entryX=0.5;entryY=0;entryDx=0;entryDy=0;" edge="1" parent="1" source="zJ9ajo2LfoPMXh8KIk3o-16" target="zJ9ajo2LfoPMXh8KIk3o-1">
          <mxGeometry width="160" relative="1" as="geometry">
            <mxPoint x="-50" y="100" as="sourcePoint" />
            <mxPoint x="170" y="100" as="targetPoint" />
            <Array as="points">
              <mxPoint x="600" y="110" />
            </Array>
          </mxGeometry>
        </mxCell>
        <mxCell id="zJ9ajo2LfoPMXh8KIk3o-25" value="" style="endArrow=block;endSize=16;endFill=0;html=1;rounded=0;exitX=1;exitY=0.5;exitDx=0;exitDy=0;entryX=-0.006;entryY=0.81;entryDx=0;entryDy=0;entryPerimeter=0;" edge="1" parent="1" source="zJ9ajo2LfoPMXh8KIk3o-18" target="zJ9ajo2LfoPMXh8KIk3o-4">
          <mxGeometry width="160" relative="1" as="geometry">
            <mxPoint x="-50" y="115" as="sourcePoint" />
            <mxPoint x="610" y="200" as="targetPoint" />
            <Array as="points">
              <mxPoint x="340" y="420" />
              <mxPoint x="340" y="330" />
            </Array>
          </mxGeometry>
        </mxCell>
      </root>
    </mxGraphModel>
  </diagram>
</mxfile>
